<?xml version="1.0" encoding="UTF-8"?><svg id="Layer_1" xmlns="http://www.w3.org/2000/svg" width="94" height="303" viewBox="0 0 94 303"><defs><style>.cls-1{fill:#f2f2f2;}.cls-2{fill:#fff;}.cls-3{fill:#ccc;}.cls-4{fill:#2e3192;}.cls-5{fill:#762706;}</style></defs><ellipse class="cls-4" cx="46.5" cy="165.56" rx="46.5" ry="53.83"/><rect class="cls-4" x="64.6" y="18.74" width="10" height="121.69" transform="translate(-8.52 8.34) rotate(-6.46)"/><rect class="cls-4" x="17.73" y="18.79" width="10" height="121.58" transform="translate(36.36 161.21) rotate(-173.54)"/><rect class="cls-4" x="20.45" y="88.27" width="51" height="95"/><rect class="cls-4" x="25.45" y="55.27" width="40" height="66"/><rect class="cls-4" x="23.45" y="42.27" width="46" height="46"/><rect class="cls-4" x="28.45" y="26.27" width="36" height="18"/><rect class="cls-4" x="25.45" y="18.27" width="42" height="8"/><rect class="cls-4" x="21.95" y="12.77" width="47.5" height="11" rx="5.5" ry="5.5"/><rect class="cls-4" x="25.45" y="8.27" width="40" height="8"/><rect class="cls-3" x="22.45" y=".27" width="47" height="8" rx="3.64" ry="3.64"/><rect class="cls-3" x="22.45" y="3.06" width="6.16" height="5.26"/><rect class="cls-3" x="64.74" y="3.38" width="4.71" height="4.89"/><ellipse class="cls-4" cx="47.5" cy="255.73" rx="46.5" ry="43"/><rect class="cls-4" x="11" y="147.73" width="71" height="153" rx="12" ry="12"/><rect class="cls-4" x="4" y="160.73" width="49" height="116" rx="12" ry="12"/><rect class="cls-4" x="40" y="161.73" width="49" height="116" rx="12" ry="12"/><rect class="cls-4" x="1" y="249.73" width="93" height="53" rx="12" ry="12"/><rect class="cls-4" x="10.66" y="58.9" width="12" height="99.04" transform="translate(22.39 -1.12) rotate(11.73)"/><rect class="cls-4" x="69.87" y="62.14" width="11.75" height="92.21" transform="translate(172.17 198.55) rotate(168.1)"/><rect class="cls-1" x="23" y="28.73" width="46" height="83"/><rect class="cls-1" x="17.88" y="30.22" width="30.77" height="81.03" transform="translate(8.17 -3.3) rotate(6.46)"/><rect class="cls-1" x="42.92" y="29.57" width="31" height="82.29" transform="translate(124.43 134.4) rotate(173.54)"/><rect class="cls-1" x="13.29" y="77.17" width="4.6" height="33.73" transform="translate(19.45 -1.21) rotate(11.73)"/><rect class="cls-1" x="73.64" y="70.81" width="4.41" height="38.78" transform="translate(168.45 163.1) rotate(168.27)"/><ellipse class="cls-1" cx="46" cy="109.23" rx="36" ry="4.5"/><ellipse class="cls-4" cx="45.5" cy="121.73" rx="23.5" ry="21"/><polygon class="cls-5" points="29.23 77.43 23 75.24 62.42 41.73 68.64 43.92 29.23 77.43"/><polygon class="cls-5" points="62.77 77.73 69 75.53 29.58 42.02 23.36 44.21 62.77 77.73"/><ellipse class="cls-2" cx="45.5" cy="59.73" rx="19.5" ry="15"/></svg>