<?xml version="1.0" encoding="UTF-8"?><svg id="Layer_1" xmlns="http://www.w3.org/2000/svg" width="100" height="387" viewBox="0 0 100 387"><defs><style>.cls-1{fill:#fff;}.cls-2,.cls-3{fill:red;}.cls-4{fill:#ccc;}.cls-5{fill:#39b54a;}.cls-3{stroke:#fff;stroke-miterlimit:10;stroke-width:.5px;}</style></defs><rect class="cls-5" y="171.56" width="100" height="215"/><circle class="cls-5" cx="50" cy="166.56" r="50"/><rect class="cls-1" x="6" y="203.45" width="87.9" height="143.07" rx="17.3" ry="17.3"/><rect class="cls-5" x="9.85" y="206.6" width="80.29" height="136.77" rx="17.3" ry="17.3"/><rect class="cls-5" x="68.15" y="18.91" width="10" height="121.69" transform="translate(-8.51 8.74) rotate(-6.46)"/><rect class="cls-5" x="21.28" y="18.96" width="10" height="121.58" transform="translate(43.43 161.94) rotate(-173.54)"/><rect class="cls-5" x="24" y="88.44" width="51" height="95"/><rect class="cls-5" x="29" y="55.44" width="40" height="66"/><rect class="cls-5" x="27" y="42.44" width="46" height="46"/><rect class="cls-5" x="32" y="26.44" width="36" height="18"/><rect class="cls-5" x="29" y="18.44" width="42" height="8"/><rect class="cls-1" x="21" y="231.44" width="57" height="96" rx="12" ry="12"/><rect x="4" y="269.44" width="92" height="20"/><polygon class="cls-2" points="55.33 250.54 50.93 248.27 46.7 250.86 47.33 245.68 43.7 242.16 48.51 241.23 50.49 236.46 52.83 241.07 57.68 241.65 54.32 245.42 55.33 250.54"/><polygon class="cls-3" points="52.98 38.52 49.63 36.71 46.42 38.76 46.9 34.65 44.14 31.85 47.79 31.12 49.29 27.34 51.06 31 54.75 31.46 52.2 34.45 52.98 38.52"/><rect class="cls-5" x="25.5" y="12.94" width="47.5" height="11" rx="5.5" ry="5.5"/><rect class="cls-5" x="29" y="8.44" width="40" height="8"/><rect class="cls-4" x="26" y=".44" width="47" height="8" rx="3.64" ry="3.64"/><rect class="cls-4" x="26" y="3.23" width="6.16" height="5.26"/><rect class="cls-4" x="68.29" y="3.55" width="4.71" height="4.89"/></svg>