<?xml version="1.0" encoding="UTF-8"?><svg id="Layer_1" xmlns="http://www.w3.org/2000/svg" width="177" height="537" xmlns:xlink="http://www.w3.org/1999/xlink" viewBox="0 0 177 537"><defs><style>.cls-1{stroke-width:3px;}.cls-1,.cls-2,.cls-3,.cls-4,.cls-5{stroke-miterlimit:10;}.cls-1,.cls-3{stroke:#8d000e;}.cls-1,.cls-3,.cls-4{fill:none;}.cls-6{filter:url(#AI_Shadow_2);opacity:.2;}.cls-7{fill:#f2f2f2;}.cls-8,.cls-5{fill:#e58453;}.cls-9{fill:#ffa27a;}.cls-10{fill:#ff897a;}.cls-11{fill:#662d91;}.cls-12{fill:#8d000e;}.cls-13{fill:#b8000d;}.cls-14{fill:#93278f;}.cls-15{fill:#2e3192;}.cls-16{fill:#534741;}.cls-2{fill:#1b1464;}.cls-2,.cls-4{stroke:#1b1464;}.cls-3{stroke-width:2px;}.cls-5{stroke:#e58453;stroke-width:.75px;}</style><filter id="AI_Shadow_2" x="-15%" y="-15%" width="140%" height="130%"><feGaussianBlur in="SourceAlpha" result="blur" stdDeviation="6"/><feOffset dx="8" dy="8" in="blur" result="offsetBlurredAlpha"/><feMerge><feMergeNode in="offsetBlurredAlpha"/><feMergeNode in="SourceGraphic"/></feMerge></filter></defs><image class="cls-6" width="150" height="24" transform="translate(5.23 502.55)" xlink:href="pige_glad1.png"/><g><ellipse class="cls-15" cx="88" cy="298.93" rx="48" ry="33.01"/><rect class="cls-16" x="97" y="496.45" width="39" height="18"/><rect class="cls-16" x="34" y="496.45" width="43" height="18"/><rect class="cls-9" x="97" y="476.45" width="19" height="29" rx="8.5" ry="8.5"/><rect class="cls-9" x="58" y="476.45" width="19" height="29" rx="8.5" ry="8.5"/><rect class="cls-10" x="143.88" y="301.06" width="4.71" height="18" rx="2" ry="2" transform="translate(292.47 620.11) rotate(180)"/><rect class="cls-9" x="146.88" y="288.06" width="7.24" height="40" rx="2" ry="2" transform="translate(301.01 616.11) rotate(180)"/><rect class="cls-9" x="154.12" y="288.06" width="5.17" height="36" rx="1.5" ry="1.5" transform="translate(313.42 612.11) rotate(180)"/><rect class="cls-9" x="156.71" y="288.06" width="6.66" height="34" rx="1.5" ry="1.5" transform="translate(320.08 610.11) rotate(180)"/><rect class="cls-9" x="161.23" y="286.72" width="6.66" height="34" rx="1.5" ry="1.5" transform="translate(329.11 607.44) rotate(180)"/><rect class="cls-10" x="27.29" y="298.45" width="4.71" height="18" rx="2" ry="2"/><rect class="cls-9" x="21.76" y="285.45" width="7.24" height="40" rx="2" ry="2"/><rect class="cls-9" x="16.59" y="285.45" width="5.17" height="36" rx="1.5" ry="1.5"/><rect class="cls-9" x="12.52" y="285.45" width="6.66" height="34" rx="1.5" ry="1.5"/><rect class="cls-9" x="8" y="284.12" width="6.66" height="34" rx="1.5" ry="1.5"/><rect class="cls-13" x="92" y="115.45" width="47" height="62"/><rect class="cls-13" x="36" y=".07" width="103" height="173.38" rx="51.5" ry="51.5"/><rect class="cls-9" x="49" y="32.45" width="76" height="101" rx="33.03" ry="33.03"/><rect class="cls-9" x="74" y="115.45" width="27" height="58" rx="12" ry="12"/><rect class="cls-11" x="36" y="162.45" width="108" height="70" rx="21.54" ry="21.54"/><rect class="cls-15" x="57" y="315.45" width="21" height="174"/><rect class="cls-11" x="18.03" y="159.29" width="38.43" height="101.72" rx="19.21" ry="19.21" transform="translate(123.19 14.8) rotate(33.8)"/><rect class="cls-11" x="137" y="227.45" width="40" height="68" rx="12" ry="12"/><rect class="cls-15" x="96.5" y="314.22" width="20" height="175"/><rect class="cls-11" x="122.73" y="162.32" width="38.43" height="100.8" rx="19.21" ry="19.21" transform="translate(371.24 325.97) rotate(150)"/><rect class="cls-11" y="224.45" width="39" height="68" rx="12" ry="12"/><rect class="cls-14" x="6" y="290.45" width="26" height="3"/><polygon class="cls-4" points="70.85 305.12 63.15 305.12 59.3 298.45 63.15 291.78 70.85 291.78 74.7 298.45 70.85 305.12"/><rect class="cls-14" x="144" y="293.45" width="26" height="3"/><rect class="cls-14" x="73" y="160.45" width="29" height="3"/><polygon class="cls-4" points="113.72 305.6 106.02 305.6 102.17 298.93 106.02 292.26 113.72 292.26 117.57 298.93 113.72 305.6"/><rect class="cls-11" x="40" y="202.45" width="96" height="96"/><line class="cls-2" x1="88" y1="298.45" x2="88" y2="331.93"/><rect class="cls-12" x="131" y="113.45" width="4" height="43" rx="2" ry="2"/><ellipse class="cls-7" cx="40" cy="502.95" rx="11" ry="10.5"/><ellipse class="cls-7" cx="132" cy="503.95" rx="11" ry="10.5"/><rect class="cls-7" x="29" y="503.45" width="22" height="11"/><rect class="cls-7" x="121" y="505.45" width="22" height="9"/><path class="cls-9" d="M42.64,84.37c-.39-2.69-1.91-7.37,3.27-8.12,5.57-.81,8.48,3.67,8.87,6.36s-4.99,5.69-7.28,6.02-4.47-1.57-4.86-4.26Z"/><path class="cls-9" d="M130.83,84.37c.39-2.69,1.91-7.37-3.27-8.12-5.57-.81-8.48,3.67-8.87,6.36s4.99,5.69,7.28,6.02,4.47-1.57,4.86-4.26Z"/><ellipse cx="66" cy="82.29" rx="2.75" ry="3.59"/><ellipse cx="104.46" cy="82.29" rx="2.75" ry="3.59"/><path class="cls-7" d="M76.15,113.45s3.2,.59,9.99,.59,10-.59,10-.59c0,1.48-4.47,2.68-9.99,2.68s-9.99-1.2-9.99-2.68Z"/><path class="cls-13" d="M73.62,73.16c-.13-1.63-2.56-2.78-5.44-2.55s-9.92,2.11-9.79,3.75,7.38,2.4,10.26,2.17,5.11-1.73,4.98-3.37Z"/><path class="cls-13" d="M97.98,73.16c.13-1.63,2.56-2.78,5.44-2.55s9.92,2.11,9.79,3.75-7.38,2.4-10.26,2.17-5.11-1.73-4.98-3.37Z"/><path class="cls-8" d="M83.56,92.25c-.6,1.05-1.09,2.18-1.38,3.36-.27,1.09-.41,2.33,0,3.41,.43,1.17,1.3,1.98,2.38,2.56,.56,.3,1.15,.58,1.8,.56,.8-.02,1.47-.48,1.72-1.24,.19-.58-.22-1.23-.79-1.38-.61-.17-1.19,.21-1.38,.79,.05-.14,.23-.3,.32-.4,.06-.06,.15,.05,.04-.02-.15-.09-.22-.07-.4-.16-.3-.15-.67-.36-.9-.54-.5-.39-.75-.92-.79-1.44-.05-.75,.08-1.32,.32-2.09s.58-1.54,1-2.26c.3-.53,.12-1.23-.4-1.54s-1.23-.12-1.54,.4h0Z"/><path class="cls-8" d="M85.64,93.02c.56-1.46,.77-3.08,.59-4.63-.03-.31-.1-.57-.33-.8-.2-.2-.52-.34-.8-.33-.55,.02-1.2,.5-1.12,1.12,.08,.72,.07,1.44,0,2.16-.01,.09,0,.05,.01-.1,0,.05-.02,.1-.02,.16-.01,.08-.03,.16-.04,.23-.03,.18-.07,.36-.12,.54-.09,.36-.2,.71-.33,1.05-.21,.55,.23,1.26,.79,1.38,.64,.15,1.16-.2,1.38-.79h0Z"/><path class="cls-8" d="M125.44,84.69c-.08-.61-.09-1.23-.02-1.83,.06-.52,.16-1.08,.39-1.55,.19-.39,.47-.76,.91-.87,.32-.08,.72-.02,.9,.29,.25,.41,.9,.04,.65-.38-.31-.51-.9-.74-1.48-.68-.63,.07-1.12,.44-1.46,.96-.36,.55-.52,1.23-.61,1.88-.12,.8-.11,1.59,0,2.38,.03,.2,.28,.31,.46,.26,.22-.06,.29-.26,.26-.46h0Z"/><path class="cls-5" d="M88.67,52.78h20.75s20.77,0,20.77,0c0,9.11-9.29,16.5-20.76,16.5-11.47,0-20.76-7.39-20.76-16.5Z"/><path class="cls-8" d="M48.74,84.65c.11-.8,.12-1.59,0-2.38-.09-.65-.25-1.32-.61-1.88-.34-.52-.83-.89-1.46-.96-.58-.07-1.17,.17-1.48,.68-.25,.41,.4,.79,.65,.38,.18-.3,.58-.37,.9-.29,.44,.11,.72,.48,.91,.87,.23,.48,.33,1.03,.39,1.55,.07,.61,.06,1.23-.02,1.83-.03,.2,.05,.4,.26,.46,.18,.05,.43-.06,.46-.26h0Z"/><path class="cls-5" d="M74.41,132.59c-.06-3.88,6.75-7.81,12.62-7.96,6.3-.16,13.52,4.01,13.47,7.96-.06,3.96-7.44,7.65-13.65,7.43-5.55-.19-12.37-3.59-12.43-7.43Z"/><path class="cls-9" d="M71.29,130.97s8.37-7.1,15.64-7.23c7.81-.14,16.69,7.23,16.69,7.23,0,0-9.22,6.95-16.92,6.75-6.88-.18-15.4-6.75-15.4-6.75Z"/><circle class="cls-13" cx="111.17" cy="42.9" r="26"/><path class="cls-5" d="M45.52,51.76h21.57s21.59,0,21.59,0c0,9.67-9.66,17.51-21.58,17.51-11.92,0-21.58-7.84-21.58-17.51Z"/><circle class="cls-13" cx="66" cy="42.45" r="26"/><path class="cls-1" d="M80,54.45c-4.32,7.16-15.48,8.33-24.95,2.61"/><rect class="cls-12" x="77.77" y="53.49" width="3.9" height="2.77" rx="1.36" ry="1.36" transform="translate(169.54 18.83) rotate(123.6)"/><rect class="cls-12" x="53" y="55.45" width="4" height="3" rx="1.5" ry="1.5" transform="translate(40.71 -20.92) rotate(33.6)"/><g><rect class="cls-3" x="90.27" y="7.51" width="3" height="1" rx=".5" ry=".5"/><path class="cls-1" d="M91.77,8.01c23.01,1.67,40.28,21.55,38.63,44.45"/><rect class="cls-12" x="128.5" y="50.96" width="4" height="2.99" rx="1.5" ry="1.5" transform="translate(199.15 -70.3) rotate(97.32)"/></g><rect class="cls-15" x="91.79" y="309" width="24.22" height="18.91"/><rect class="cls-15" x="107.77" y="316.13" width="14.67" height="5.92" rx=".15" ry=".15" transform="translate(-205.06 207.01) rotate(-50.87)"/><rect class="cls-15" x="52.45" y="314.07" width="14.67" height="6.48" rx=".15" ry=".15" transform="translate(-148.63 563.93) rotate(-129.13)"/><rect class="cls-11" x="40" y="202.45" width="96" height="96"/><rect class="cls-11" x="37.24" y="187.44" width="102.85" height="33.41"/><circle class="cls-8" cx="66" cy="95.2" r=".44"/><circle class="cls-8" cx="70.57" cy="98.28" r=".44"/><circle class="cls-8" cx="60.65" cy="97.23" r=".44"/><circle class="cls-8" cx="74.44" cy="95.22" r=".44"/><circle class="cls-8" cx="97.98" cy="98.72" r=".44"/><circle class="cls-8" cx="104.46" cy="95.2" r=".44"/><circle class="cls-8" cx="93.34" cy="95.2" r=".44"/><circle class="cls-8" cx="109.87" cy="97.23" r=".44"/></g></svg>