<?xml version="1.0" encoding="UTF-8"?><svg id="Layer_1" xmlns="http://www.w3.org/2000/svg" width="175" height="173" viewBox="0 0 175 173"><defs><style>.cls-1,.cls-2,.cls-3{fill:#f2f2f2;}.cls-4,.cls-5{fill:#ed1e79;}.cls-6{fill:#333;}.cls-7{fill:#d4145a;}.cls-8,.cls-9{fill:#534741;}.cls-5{stroke:#ff7bac;}.cls-5,.cls-9{stroke-width:.2px;}.cls-5,.cls-9,.cls-10,.cls-2,.cls-3{stroke-miterlimit:10;}.cls-9{stroke:#333;}.cls-10{fill:#ccc;stroke-width:.5px;}.cls-10,.cls-2{stroke:#e6e6e6;}.cls-3{stroke:#ccc;}</style></defs><g><ellipse class="cls-3" cx="47.23" cy="116.19" rx="30.51" ry="5.95" transform="translate(-8.88 4.02) rotate(-4.46)"/><polygon class="cls-1" points="46.42 112.68 16.34 118.17 1.19 7.44 31.27 1.95 46.42 112.68"/><polygon class="cls-1" points="47.46 112.78 78.04 113.54 75.93 1.98 45.36 1.22 47.46 112.78"/><ellipse class="cls-2" cx="38.58" cy="4.67" rx="37.69" ry="2.97" transform="translate(-.25 3.01) rotate(-4.45)"/><rect class="cls-1" x="28.31" y="8.02" width="30.51" height="108.34" transform="translate(-4.7 3.57) rotate(-4.45)"/><rect class="cls-4" x="31.16" y="19.93" width="24.98" height="90.44" transform="translate(-4.93 3.59) rotate(-4.45)"/><polygon class="cls-4" points="39.73 108.98 20.32 112.52 8.01 22.57 27.42 19.02 39.73 108.98"/><polygon class="cls-4" points="47.03 107.76 72.06 108.39 70.35 17.87 45.33 17.25 47.03 107.76"/><ellipse class="cls-5" cx="39.72" cy="20.39" rx="31.04" ry="3.27" transform="translate(-1.46 3.15) rotate(-4.46)"/><ellipse class="cls-4" cx="46.32" cy="110.29" rx="26.03" ry="4.76" transform="translate(-8.43 3.93) rotate(-4.46)"/><path class="cls-7" d="M24.15,103.67h0c-.97,.18-1.91-.74-2.09-2.03L12.72,33.38c-.18-1.3,.47-2.5,1.45-2.68h0c.97-.18,1.91,.74,2.09,2.03l9.34,68.26c.18,1.3-.47,2.5-1.45,2.68Z"/></g><rect class="cls-4" x="49.43" y="70.79" width="19.29" height="21.05"/><line class="cls-10" x1="20.29" y1="113.79" x2="6.81" y2="12.23"/><line class="cls-10" x1="72.21" y1="108.79" x2="70.21" y2="6.72"/><g><ellipse class="cls-3" cx="111.32" cy="163.32" rx="5.95" ry="30.52" transform="translate(-73.49 233.4) rotate(-76.49)"/><polygon class="cls-1" points="111.63 159.73 81.31 155.67 100.91 45.65 131.22 49.71 111.63 159.73"/><polygon class="cls-1" points="112.59 160.15 141.44 170.3 173.7 63.51 144.85 53.35 112.59 160.15"/><ellipse class="cls-2" cx="137.34" cy="54.54" rx="2.97" ry="37.7" transform="translate(52.22 175.34) rotate(-76.49)"/><rect class="cls-1" x="109.16" y="56.65" width="30.52" height="108.33" transform="translate(29.33 -26) rotate(13.51)"/><rect class="cls-8" x="111.09" y="68.43" width="24.98" height="90.43" transform="translate(29.97 -25.73) rotate(13.51)"/><polygon class="cls-8" points="106.4 154.15 86.84 151.53 102.76 62.14 122.31 64.76 106.4 154.15"/><polygon class="cls-8" points="113.72 155.24 137.34 163.56 163.52 76.91 139.89 68.59 113.72 155.24"/><ellipse class="cls-9" cx="133.6" cy="69.86" rx="3.27" ry="31.04" transform="translate(34.46 183.44) rotate(-76.49)"/><ellipse class="cls-8" cx="112.27" cy="157.43" rx="4.76" ry="26.03" transform="translate(-67.03 229.81) rotate(-76.49)"/><path class="cls-6" d="M93.21,144.29h0c-.98-.13-1.6-1.29-1.37-2.58l12.08-67.82c.23-1.29,1.22-2.23,2.2-2.1h0c.98,.13,1.6,1.29,1.37,2.58l-12.08,67.82c-.23,1.29-1.22,2.23-2.2,2.1Z"/></g><polygon class="cls-8" points="139.24 146.78 120.89 140.82 127.35 120.8 145.71 126.75 139.24 146.78"/><line class="cls-10" x1="86.42" y1="152.73" x2="104.79" y2="51.94"/><line class="cls-10" x1="137.36" y1="163.99" x2="166.8" y2="66.26"/></svg>