<?xml version="1.0" encoding="UTF-8"?><svg id="Layer_1" xmlns="http://www.w3.org/2000/svg" width="100" height="360" viewBox="0 0 100 360"><defs><style>.cls-1{fill:#f2f2f2;}.cls-2{fill:#fff;}.cls-3{fill:#fbb03b;}.cls-4{fill:#999;}.cls-5{fill:#b3b3b3;}.cls-6{fill:#c1272d;}.cls-7{fill:#446d47;}.cls-8{fill:#1a1a1a;}</style></defs><rect class="cls-7" x=".04" y="172.8" width="99.68" height="186.99" rx="12" ry="12"/><ellipse class="cls-7" cx="50" cy="181.42" rx="49.95" ry="75.43" transform="translate(-3.49 1) rotate(-1.11)"/><path class="cls-7" d="M65.83,129.36l-32.4-.82c-3.27-.08-5.92-3-5.92-6.51l.03-106.14c0-3.51,2.65-6.3,5.92-6.21l32.4,.82c3.27,.08,5.92,3,5.92,6.51l-.03,106.14c0,3.51-2.65,6.3-5.92,6.21Z"/><path class="cls-7" d="M68.81,16.67l-38.67-.06c-2.59,0-4.75-2.28-4.82-5.06v-.56c-.08-2.78,1.98-5.05,4.57-5.04l38.67,.06c2.59,0,4.75,2.28,4.82,5.06v.56c.08,2.78-1.98,5.05-4.57,5.04Z"/><polygon class="cls-7" points="25.64 164.38 2.83 157.76 30.79 36.72 53.59 43.34 25.64 164.38"/><polygon class="cls-7" points="74.39 164.69 97.2 159.23 69.31 36.77 46.5 42.24 74.39 164.69"/><ellipse class="cls-1" cx="49.99" cy="232.25" rx="37.74" ry="54.12" transform="translate(-5.44 1.24) rotate(-1.34)"/><ellipse class="cls-1" cx="49.24" cy="178.13" rx="19.62" ry="21.03" transform="translate(-135.1 191.28) rotate(-78.63)"/><g><ellipse class="cls-3" cx="42.7" cy="172.76" rx="6.04" ry="6.92" transform="translate(-16.82 5.05) rotate(-5.66)"/><path class="cls-3" d="M58.39,181.98l-17.9-.13c-.28,0-.52-.27-.52-.6l-.03-1.54c0-.33,.22-.6,.5-.6l17.9,.13c.28,0,.52,.27,.52,.6l.03,1.54c0,.33-.22,.6-.5,.6Z"/><ellipse class="cls-3" cx="55.41" cy="172.8" rx="6.04" ry="6.92"/><ellipse class="cls-1" cx="41" cy="180.3" rx=".53" ry=".63" transform="translate(-13.66 3.66) rotate(-4.38)"/><ellipse class="cls-1" cx="43.11" cy="180.31" rx=".53" ry=".63" transform="translate(-13.66 3.82) rotate(-4.38)"/><ellipse class="cls-1" cx="49.42" cy="180.35" rx=".53" ry=".63" transform="translate(-13.64 4.31) rotate(-4.38)"/><ellipse class="cls-1" cx="47.31" cy="180.33" rx=".53" ry=".63" transform="translate(-13.65 4.14) rotate(-4.38)"/><ellipse class="cls-1" cx="45.21" cy="180.32" rx=".53" ry=".63" transform="translate(-13.65 3.98) rotate(-4.38)"/><ellipse class="cls-1" cx="51.52" cy="180.36" rx=".53" ry=".63" transform="translate(-13.64 4.47) rotate(-4.38)"/><ellipse class="cls-1" cx="53.62" cy="180.37" rx=".53" ry=".63" transform="translate(-13.63 4.63) rotate(-4.38)"/><ellipse class="cls-1" cx="55.72" cy="180.38" rx=".53" ry=".63" transform="translate(-13.63 4.79) rotate(-4.38)"/><ellipse class="cls-1" cx="57.83" cy="180.4" rx=".53" ry=".63" transform="translate(-13.62 4.95) rotate(-4.38)"/><ellipse class="cls-3" cx="49.12" cy="164.63" rx=".53" ry="1.26" transform="translate(-4 1.25) rotate(-1.4)"/><ellipse class="cls-3" cx="50.17" cy="164.63" rx="1.2" ry=".55" transform="translate(-121.17 148.4) rotate(-67.64)"/><ellipse class="cls-3" cx="48.08" cy="164.58" rx=".54" ry="1.22" transform="translate(-64.12 34.93) rotate(-24.59)"/><ellipse class="cls-1" cx="42.53" cy="172.8" rx="4.93" ry="5.85" transform="translate(-16.88 5.05) rotate(-5.68)"/><ellipse class="cls-1" cx="55.41" cy="172.76" rx="5.85" ry="4.93" transform="translate(-121.73 211.99) rotate(-84.7)"/><ellipse class="cls-3" cx="49.28" cy="173.43" rx="6.3" ry="6.93" transform="translate(-23.58 8.51) rotate(-7.97)"/><ellipse class="cls-1" cx="49.28" cy="173.43" rx="4.93" ry="5.85" transform="translate(-13.11 4.27) rotate(-4.38)"/></g><ellipse class="cls-6" cx="50.16" cy="232.47" rx="32.12" ry="42.25" transform="translate(-4.15 .93) rotate(-1.03)"/><path class="cls-4" d="M70.32,10.93l-41.96-.07c-2.52,0-4.63-2.22-4.69-4.92l-.02-.82c-.06-2.7,1.95-4.91,4.46-4.91l41.96,.07c2.52,0,4.63,2.22,4.69,4.92l.02,.82c.06,2.7-1.95,4.91-4.46,4.91Z"/><polygon class="cls-4" points="28.28 12.26 25.94 10.09 28.38 7.02 30.73 9.18 28.28 12.26"/><polygon class="cls-4" points="28.25 5.99 29.29 9.1 24.98 10.65 23.94 7.54 28.25 5.99"/><polygon class="cls-4" points="37.36 12.18 35.02 10.01 37.47 6.93 39.81 9.1 37.36 12.18"/><polygon class="cls-4" points="34.31 12.17 31.97 10 34.42 6.93 36.76 9.1 34.31 12.17"/><polygon class="cls-4" points="31.26 12.17 28.92 10 31.37 6.92 33.71 9.09 31.26 12.17"/><polygon class="cls-4" points="55.67 12.2 53.33 10.04 55.78 6.96 58.12 9.13 55.67 12.2"/><polygon class="cls-4" points="52.62 12.2 50.28 10.03 52.73 6.96 55.07 9.13 52.62 12.2"/><polygon class="cls-4" points="49.57 12.2 47.23 10.03 49.68 6.95 52.02 9.12 49.57 12.2"/><polygon class="cls-4" points="46.52 12.19 44.18 10.02 46.63 6.95 48.97 9.12 46.52 12.19"/><polygon class="cls-4" points="43.47 12.19 41.13 10.02 43.57 6.94 45.92 9.11 43.47 12.19"/><polygon class="cls-4" points="40.42 12.18 38.07 10.01 40.52 6.94 42.86 9.11 40.42 12.18"/><polygon class="cls-4" points="71.02 12.31 68.59 10.06 71.65 6.23 74.08 8.48 71.02 12.31"/><polygon class="cls-4" points="67.88 12.22 65.54 10.06 67.99 6.98 70.33 9.15 67.88 12.22"/><polygon class="cls-4" points="64.83 12.22 62.49 10.05 64.94 6.98 67.28 9.15 64.83 12.22"/><polygon class="cls-4" points="61.78 12.21 59.44 10.05 61.88 6.97 64.23 9.14 61.78 12.21"/><polygon class="cls-4" points="58.73 12.21 56.38 10.04 58.83 6.97 61.17 9.14 58.73 12.21"/><polygon class="cls-4" points="70.14 6.18 69.24 9.29 73.62 10.85 74.52 7.74 70.14 6.18"/><path class="cls-5" d="M68.89,5.19l-40.12-.06c-1.14,0-2.09-1-2.12-2.22v-.48c-.04-1.22,.87-2.22,2-2.22l40.12,.06c1.14,0,2.09,1,2.12,2.22v.48c.04,1.22-.87,2.22-2,2.22Z"/><line class="cls-7" x1="78.63" y1="78.04" x2="84.72" y2="105.25"/><line class="cls-7" x1="16.08" y1="100.23" x2="3.41" y2="155.97"/><ellipse class="cls-1" cx="49.8" cy="232.46" rx="24.24" ry="33.84" transform="translate(-4.16 .93) rotate(-1.03)"/><ellipse class="cls-8" cx="49.86" cy="231.74" rx="34.52" ry="20.47"/><polyline class="cls-2" points="6.83 136.72 84.48 103.86 79.08 78.43 14.55 105.74"/><line class="cls-7" x1="78.71" y1="78.41" x2="84.64" y2="104.87"/><line class="cls-7" x1="15.61" y1="102.31" x2="7.03" y2="140.05"/></svg>