<svg xmlns="http://www.w3.org/2000/svg" width="256" height="256" viewBox="0 0 100 100"><rect width="100" height="100" rx="50" fill="#1919d9"></rect><path fill="#fff" d="M59.77 64.98L56.90 57.42L38.20 57.42Q37.02 60.29 36.17 62.50Q35.34 64.70 34.81 66.31Q34.28 67.92 34.08 69.04Q33.87 70.16 33.87 70.86L33.87 70.86Q33.87 72.82 35.13 73.56Q36.39 74.29 39.33 74.29L39.33 74.29L39.33 76.95L22.31 76.95L22.31 74.29Q23.93 74.08 25.08 73.73Q26.23 73.38 27.11 72.75Q27.98 72.12 28.65 71.11Q29.32 70.09 29.95 68.62L29.95 68.62L48.15 23.05L51.16 23.05L67.05 62.53Q68.66 66.45 69.84 68.80Q71.03 71.14 72.16 72.33Q73.28 73.52 74.57 73.87Q75.87 74.22 77.69 74.22L77.69 74.22L77.69 76.95L54.87 76.95L54.87 74.22Q58.58 74.22 59.98 73.52Q61.38 72.82 61.38 71.21L61.38 71.21Q61.38 70.51 61.30 69.92Q61.24 69.32 61.06 68.62Q60.89 67.92 60.57 67.05Q60.26 66.17 59.77 64.98L59.77 64.98ZM47.80 33.27L39.61 53.92L55.57 53.92L47.80 33.27Z"></path></svg>